<?xml version="1.0" encoding="UTF-8" standalone="no"?>
<!DOCTYPE svg PUBLIC "-//W3C//DTD SVG 1.1//EN" "http://www.w3.org/Graphics/SVG/1.1/DTD/svg11.dtd">
<svg width="100%" height="100%" viewBox="0 0 16 16" version="1.1" xmlns="http://www.w3.org/2000/svg" xmlns:xlink="http://www.w3.org/1999/xlink" xml:space="preserve" xmlns:serif="http://www.serif.com/" style="fill-rule:evenodd;clip-rule:evenodd;stroke-linejoin:round;stroke-miterlimit:2;">
    <g transform="matrix(1.16626,0,0,1.16626,-1.33581,-0.567009)">
        <g transform="matrix(1.13649,0,0,1.13649,-3.53369,-1.62943)">
            <path d="M10.149,2.871C12.096,2.871 13.677,4.452 13.677,6.399C13.677,8.346 12.096,9.927 10.149,9.927C8.201,9.927 6.62,8.346 6.62,6.399C6.62,4.452 8.201,2.871 10.149,2.871ZM10.149,3.625C11.679,3.625 12.922,4.868 12.922,6.399C12.922,7.93 11.679,9.173 10.149,9.173C8.618,9.173 7.375,7.93 7.375,6.399C7.375,4.868 8.618,3.625 10.149,3.625Z"/>
        </g>
        <g transform="matrix(1.13649,0,0,1.13649,-5.53369,1.77601)">
            <path d="M10.149,2.871C12.096,2.871 13.677,4.452 13.677,6.399C13.677,8.346 12.096,9.927 10.149,9.927C8.201,9.927 6.62,8.346 6.62,6.399C6.62,4.452 8.201,2.871 10.149,2.871ZM10.149,3.625C11.679,3.625 12.922,4.868 12.922,6.399C12.922,7.93 11.679,9.173 10.149,9.173C8.618,9.173 7.375,7.93 7.375,6.399C7.375,4.868 8.618,3.625 10.149,3.625Z"/>
        </g>
        <g transform="matrix(1.13649,0,0,1.13649,-1.52381,1.77601)">
            <path d="M10.149,2.871C12.096,2.871 13.677,4.452 13.677,6.399C13.677,8.346 12.096,9.927 10.149,9.927C8.201,9.927 6.62,8.346 6.62,6.399C6.62,4.452 8.201,2.871 10.149,2.871ZM10.149,3.625C11.679,3.625 12.922,4.868 12.922,6.399C12.922,7.93 11.679,9.173 10.149,9.173C8.618,9.173 7.375,7.93 7.375,6.399C7.375,4.868 8.618,3.625 10.149,3.625Z"/>
        </g>
    </g>
</svg>
